<svg xmlns="http://www.w3.org/2000/svg" version="1.1" xmlns:xlink="http://www.w3.org/1999/xlink" xmlns:svgjs="http://svgjs.dev/svgjs" width="1440" height="560" preserveAspectRatio="none" viewBox="0 0 1440 560"><g mask="url(&quot;#SvgjsMask1026&quot;)" fill="none"><rect width="1440" height="560" x="0" y="0" fill="url(&quot;#SvgjsLinearGradient1027&quot;)"></rect><path d="M111.29 331.18L176.25 368.68L176.25 443.68L111.29 481.18L46.34 443.68L46.34 368.68zM176.25 -6.32L241.2 31.18L241.2 106.18L176.25 143.68L111.29 106.18L111.29 31.18zM371.11 331.18L436.06 368.68L436.06 443.68L371.11 481.18L306.15 443.68L306.15 368.68zM890.74 331.18L955.69 368.68L955.69 443.68L890.74 481.18L825.78 443.68L825.78 368.68zM1215.51 -6.32L1280.46 31.18L1280.46 106.18L1215.51 143.68L1150.55 106.18L1150.55 31.18zM1475.32 -6.32L1540.28 31.18L1540.28 106.18L1475.32 143.68L1410.37 106.18L1410.37 31.18z" stroke="url(&quot;#SvgjsLinearGradient1028&quot;)" stroke-width="2"></path><path d="M103.79 331.18 a7.5 7.5 0 1 0 15 0 a7.5 7.5 0 1 0 -15 0zM168.75 368.68 a7.5 7.5 0 1 0 15 0 a7.5 7.5 0 1 0 -15 0zM168.75 443.68 a7.5 7.5 0 1 0 15 0 a7.5 7.5 0 1 0 -15 0zM103.79 481.18 a7.5 7.5 0 1 0 15 0 a7.5 7.5 0 1 0 -15 0zM38.84 443.68 a7.5 7.5 0 1 0 15 0 a7.5 7.5 0 1 0 -15 0zM38.84 368.68 a7.5 7.5 0 1 0 15 0 a7.5 7.5 0 1 0 -15 0zM168.75 -6.32 a7.5 7.5 0 1 0 15 0 a7.5 7.5 0 1 0 -15 0zM233.7 31.18 a7.5 7.5 0 1 0 15 0 a7.5 7.5 0 1 0 -15 0zM233.7 106.18 a7.5 7.5 0 1 0 15 0 a7.5 7.5 0 1 0 -15 0zM168.75 143.68 a7.5 7.5 0 1 0 15 0 a7.5 7.5 0 1 0 -15 0zM103.79 106.18 a7.5 7.5 0 1 0 15 0 a7.5 7.5 0 1 0 -15 0zM103.79 31.18 a7.5 7.5 0 1 0 15 0 a7.5 7.5 0 1 0 -15 0zM363.61 331.18 a7.5 7.5 0 1 0 15 0 a7.5 7.5 0 1 0 -15 0zM428.56 368.68 a7.5 7.5 0 1 0 15 0 a7.5 7.5 0 1 0 -15 0zM428.56 443.68 a7.5 7.5 0 1 0 15 0 a7.5 7.5 0 1 0 -15 0zM363.61 481.18 a7.5 7.5 0 1 0 15 0 a7.5 7.5 0 1 0 -15 0zM298.65 443.68 a7.5 7.5 0 1 0 15 0 a7.5 7.5 0 1 0 -15 0zM298.65 368.68 a7.5 7.5 0 1 0 15 0 a7.5 7.5 0 1 0 -15 0zM883.24 331.18 a7.5 7.5 0 1 0 15 0 a7.5 7.5 0 1 0 -15 0zM948.19 368.68 a7.5 7.5 0 1 0 15 0 a7.5 7.5 0 1 0 -15 0zM948.19 443.68 a7.5 7.5 0 1 0 15 0 a7.5 7.5 0 1 0 -15 0zM883.24 481.18 a7.5 7.5 0 1 0 15 0 a7.5 7.5 0 1 0 -15 0zM818.28 443.68 a7.5 7.5 0 1 0 15 0 a7.5 7.5 0 1 0 -15 0zM818.28 368.68 a7.5 7.5 0 1 0 15 0 a7.5 7.5 0 1 0 -15 0zM1208.01 -6.32 a7.5 7.5 0 1 0 15 0 a7.5 7.5 0 1 0 -15 0zM1272.96 31.18 a7.5 7.5 0 1 0 15 0 a7.5 7.5 0 1 0 -15 0zM1272.96 106.18 a7.5 7.5 0 1 0 15 0 a7.5 7.5 0 1 0 -15 0zM1208.01 143.68 a7.5 7.5 0 1 0 15 0 a7.5 7.5 0 1 0 -15 0zM1143.05 106.18 a7.5 7.5 0 1 0 15 0 a7.5 7.5 0 1 0 -15 0zM1143.05 31.18 a7.5 7.5 0 1 0 15 0 a7.5 7.5 0 1 0 -15 0zM1467.82 -6.32 a7.5 7.5 0 1 0 15 0 a7.5 7.5 0 1 0 -15 0zM1532.78 31.18 a7.5 7.5 0 1 0 15 0 a7.5 7.5 0 1 0 -15 0zM1532.78 106.18 a7.5 7.5 0 1 0 15 0 a7.5 7.5 0 1 0 -15 0zM1467.82 143.68 a7.5 7.5 0 1 0 15 0 a7.5 7.5 0 1 0 -15 0zM1402.87 106.18 a7.5 7.5 0 1 0 15 0 a7.5 7.5 0 1 0 -15 0zM1402.87 31.18 a7.5 7.5 0 1 0 15 0 a7.5 7.5 0 1 0 -15 0z" fill="url(&quot;#SvgjsLinearGradient1028&quot;)"></path><path d="M201.83 457.34L296.23 511.84L296.23 620.84L201.83 675.34L107.43 620.84L107.43 511.84zM390.63 457.34L485.03 511.84L485.03 620.84L390.63 675.34L296.23 620.84L296.23 511.84zM579.43 130.34L673.83 184.84L673.83 293.84L579.43 348.34L485.03 293.84L485.03 184.84zM673.83 -33.16L768.23 21.34L768.23 130.34L673.83 184.84L579.43 130.34L579.43 21.34zM957.03 457.34L1051.42 511.84L1051.42 620.84L957.03 675.34L862.63 620.84L862.63 511.84zM1334.62 130.34L1429.02 184.84L1429.02 293.84L1334.62 348.34L1240.22 293.84L1240.22 184.84zM1240.22 293.84L1334.62 348.34L1334.62 457.34L1240.22 511.84L1145.82 457.34L1145.82 348.34z" stroke="url(&quot;#SvgjsLinearGradient1029&quot;)" stroke-width="2"></path></g><defs><mask id="SvgjsMask1026"><rect width="1440" height="560" fill="#ffffff"></rect></mask><linearGradient x1="84.72%" y1="139.29%" x2="15.28%" y2="-39.29%" gradientUnits="userSpaceOnUse" id="SvgjsLinearGradient1027"><stop stop-color="#0e2a47" offset="0"></stop><stop stop-color="rgba(0, 69, 158, 1)" offset="0.66"></stop><stop stop-color="rgba(0, 69, 158, 1)" offset="0.71"></stop><stop stop-color="rgba(0, 69, 158, 1)" offset="0.87"></stop><stop stop-color="#00459e" offset="1"></stop></linearGradient><linearGradient x1="0" y1="280" x2="1440" y2="280" gradientUnits="userSpaceOnUse" id="SvgjsLinearGradient1028"><stop stop-color="rgba(3, 48, 93, 1)" offset="0.97"></stop><stop stop-color="rgba(3, 48, 93, 1)" offset="0.97"></stop><stop stop-color="#03305d" offset="1"></stop></linearGradient><linearGradient x1="220.03199999999998" y1="-220.02399999999997" x2="1219.9679999999998" y2="780.024" gradientUnits="userSpaceOnUse" id="SvgjsLinearGradient1029"><stop stop-color="#0e2a47" offset="0"></stop><stop stop-color="#00459e" offset="1"></stop></linearGradient></defs></svg>