<svg xmlns="http://www.w3.org/2000/svg" version="1.1" xmlns:xlink="http://www.w3.org/1999/xlink" xmlns:svgjs="http://svgjs.dev/svgjs" width="2000" height="400" preserveAspectRatio="none" viewBox="0 0 2000 400"><g mask="url(&quot;#SvgjsMask1125&quot;)" fill="none"><path d="M-96.26 549.5L-96.26 549.5" stroke="rgba(86, 165, 255, 1)" stroke-width="1.5"></path><path d="M-96.26 549.5L63.77 507.98" stroke="rgba(86, 165, 255, 1)" stroke-width="1.5"></path><path d="M57.19 352.67L57.19 352.67" stroke="rgba(86, 165, 255, 1)" stroke-width="1.5"></path><path d="M57.19 352.67L196.42 403.34" stroke="rgba(86, 165, 255, 1)" stroke-width="1.5"></path><path d="M57.19 352.67L63.77 507.98" stroke="rgba(86, 165, 255, 1)" stroke-width="1.5"></path><path d="M57.19 352.67L-96.26 549.5" stroke="rgba(86, 165, 255, 1)" stroke-width="1.5"></path><path d="M57.19 352.67L252.02 544.8" stroke="rgba(86, 165, 255, 1)" stroke-width="1.5"></path><path d="M63.77 507.98L63.77 507.98" stroke="rgba(86, 165, 255, 1)" stroke-width="1.5"></path><path d="M63.77 507.98L196.42 403.34" stroke="rgba(86, 165, 255, 1)" stroke-width="1.5"></path><path d="M196.42 403.34L196.42 403.34" stroke="rgba(86, 165, 255, 1)" stroke-width="1.5"></path><path d="M196.42 403.34L252.02 544.8" stroke="rgba(86, 165, 255, 1)" stroke-width="1.5"></path><path d="M196.42 403.34L353.84 339.67" stroke="rgba(86, 165, 255, 1)" stroke-width="1.5"></path><path d="M252.02 544.8L252.02 544.8" stroke="rgba(86, 165, 255, 1)" stroke-width="1.5"></path><path d="M252.02 544.8L354.3 557.24" stroke="rgba(86, 165, 255, 1)" stroke-width="1.5"></path><path d="M252.02 544.8L63.77 507.98" stroke="rgba(86, 165, 255, 1)" stroke-width="1.5"></path><path d="M252.02 544.8L353.84 339.67" stroke="rgba(86, 165, 255, 1)" stroke-width="1.5"></path><path d="M252.02 544.8L503.63 494.86" stroke="rgba(86, 165, 255, 1)" stroke-width="1.5"></path><path d="M353.84 339.67L353.84 339.67" stroke="rgba(86, 165, 255, 1)" stroke-width="1.5"></path><path d="M353.84 339.67L506.21 262.34" stroke="rgba(86, 165, 255, 1)" stroke-width="1.5"></path><path d="M353.84 339.67L514.52 400.1" stroke="rgba(86, 165, 255, 1)" stroke-width="1.5"></path><path d="M353.84 339.67L503.63 494.86" stroke="rgba(86, 165, 255, 1)" stroke-width="1.5"></path><path d="M353.84 339.67L354.3 557.24" stroke="rgba(86, 165, 255, 1)" stroke-width="1.5"></path><path d="M354.3 557.24L354.3 557.24" stroke="rgba(86, 165, 255, 1)" stroke-width="1.5"></path><path d="M354.3 557.24L503.63 494.86" stroke="rgba(86, 165, 255, 1)" stroke-width="1.5"></path><path d="M506.21 262.34L506.21 262.34" stroke="rgba(86, 165, 255, 1)" stroke-width="1.5"></path><path d="M506.21 262.34L514.52 400.1" stroke="rgba(86, 165, 255, 1)" stroke-width="1.5"></path><path d="M506.21 262.34L656.47 215.62" stroke="rgba(86, 165, 255, 1)" stroke-width="1.5"></path><path d="M514.52 400.1L514.52 400.1" stroke="rgba(86, 165, 255, 1)" stroke-width="1.5"></path><path d="M514.52 400.1L503.63 494.86" stroke="rgba(86, 165, 255, 1)" stroke-width="1.5"></path><path d="M514.52 400.1L676.65 376.91" stroke="rgba(86, 165, 255, 1)" stroke-width="1.5"></path><path d="M514.52 400.1L688.4 517.82" stroke="rgba(86, 165, 255, 1)" stroke-width="1.5"></path><path d="M514.52 400.1L354.3 557.24" stroke="rgba(86, 165, 255, 1)" stroke-width="1.5"></path><path d="M503.63 494.86L503.63 494.86" stroke="rgba(86, 165, 255, 1)" stroke-width="1.5"></path><path d="M503.63 494.86L688.4 517.82" stroke="rgba(86, 165, 255, 1)" stroke-width="1.5"></path><path d="M503.63 494.86L676.65 376.91" stroke="rgba(86, 165, 255, 1)" stroke-width="1.5"></path><path d="M656.47 215.62L656.47 215.62" stroke="rgba(86, 165, 255, 1)" stroke-width="1.5"></path><path d="M656.47 215.62L797.52 257.2" stroke="rgba(86, 165, 255, 1)" stroke-width="1.5"></path><path d="M656.47 215.62L676.65 376.91" stroke="rgba(86, 165, 255, 1)" stroke-width="1.5"></path><path d="M656.47 215.62L514.52 400.1" stroke="rgba(86, 165, 255, 1)" stroke-width="1.5"></path><path d="M656.47 215.62L688.4 517.82" stroke="rgba(86, 165, 255, 1)" stroke-width="1.5"></path><path d="M676.65 376.91L676.65 376.91" stroke="rgba(86, 165, 255, 1)" stroke-width="1.5"></path><path d="M676.65 376.91L688.4 517.82" stroke="rgba(86, 165, 255, 1)" stroke-width="1.5"></path><path d="M676.65 376.91L797.52 257.2" stroke="rgba(86, 165, 255, 1)" stroke-width="1.5"></path><path d="M676.65 376.91L822.15 499" stroke="rgba(86, 165, 255, 1)" stroke-width="1.5"></path><path d="M676.65 376.91L506.21 262.34" stroke="rgba(86, 165, 255, 1)" stroke-width="1.5"></path><path d="M688.4 517.82L688.4 517.82" stroke="rgba(86, 165, 255, 1)" stroke-width="1.5"></path><path d="M688.4 517.82L822.15 499" stroke="rgba(86, 165, 255, 1)" stroke-width="1.5"></path><path d="M797.52 257.2L797.52 257.2" stroke="rgba(86, 165, 255, 1)" stroke-width="1.5"></path><path d="M797.52 257.2L967.28 250.12" stroke="rgba(86, 165, 255, 1)" stroke-width="1.5"></path><path d="M797.52 257.2L1000.57 384.95" stroke="rgba(86, 165, 255, 1)" stroke-width="1.5"></path><path d="M797.52 257.2L822.15 499" stroke="rgba(86, 165, 255, 1)" stroke-width="1.5"></path><path d="M822.15 499L822.15 499" stroke="rgba(86, 165, 255, 1)" stroke-width="1.5"></path><path d="M822.15 499L981 514.18" stroke="rgba(86, 165, 255, 1)" stroke-width="1.5"></path><path d="M967.28 250.12L967.28 250.12" stroke="rgba(86, 165, 255, 1)" stroke-width="1.5"></path><path d="M967.28 250.12L1088.16 213.85" stroke="rgba(86, 165, 255, 1)" stroke-width="1.5"></path><path d="M967.28 250.12L1000.57 384.95" stroke="rgba(86, 165, 255, 1)" stroke-width="1.5"></path><path d="M967.28 250.12L1124.82 84.57" stroke="rgba(86, 165, 255, 1)" stroke-width="1.5"></path><path d="M1000.57 384.95L1000.57 384.95" stroke="rgba(86, 165, 255, 1)" stroke-width="1.5"></path><path d="M1000.57 384.95L981 514.18" stroke="rgba(86, 165, 255, 1)" stroke-width="1.5"></path><path d="M1000.57 384.95L1093.05 533.95" stroke="rgba(86, 165, 255, 1)" stroke-width="1.5"></path><path d="M981 514.18L981 514.18" stroke="rgba(86, 165, 255, 1)" stroke-width="1.5"></path><path d="M981 514.18L1093.05 533.95" stroke="rgba(86, 165, 255, 1)" stroke-width="1.5"></path><path d="M981 514.18L967.28 250.12" stroke="rgba(86, 165, 255, 1)" stroke-width="1.5"></path><path d="M981 514.18L1259.17 547.17" stroke="rgba(86, 165, 255, 1)" stroke-width="1.5"></path><path d="M1124.82 84.57L1124.82 84.57" stroke="rgba(86, 165, 255, 1)" stroke-width="1.5"></path><path d="M1124.82 84.57L1088.16 213.85" stroke="rgba(86, 165, 255, 1)" stroke-width="1.5"></path><path d="M1124.82 84.57L1240.84 224.66" stroke="rgba(86, 165, 255, 1)" stroke-width="1.5"></path><path d="M1124.82 84.57L1306.91 84.17" stroke="rgba(86, 165, 255, 1)" stroke-width="1.5"></path><path d="M1124.82 84.57L1257.36 362.84" stroke="rgba(86, 165, 255, 1)" stroke-width="1.5"></path><path d="M1124.82 84.57L1000.57 384.95" stroke="rgba(86, 165, 255, 1)" stroke-width="1.5"></path><path d="M1088.16 213.85L1088.16 213.85" stroke="rgba(86, 165, 255, 1)" stroke-width="1.5"></path><path d="M1088.16 213.85L1240.84 224.66" stroke="rgba(86, 165, 255, 1)" stroke-width="1.5"></path><path d="M1088.16 213.85L1000.57 384.95" stroke="rgba(86, 165, 255, 1)" stroke-width="1.5"></path><path d="M1088.16 213.85L1257.36 362.84" stroke="rgba(86, 165, 255, 1)" stroke-width="1.5"></path><path d="M1088.16 213.85L1306.91 84.17" stroke="rgba(86, 165, 255, 1)" stroke-width="1.5"></path><path d="M1093.05 533.95L1093.05 533.95" stroke="rgba(86, 165, 255, 1)" stroke-width="1.5"></path><path d="M1093.05 533.95L1259.17 547.17" stroke="rgba(86, 165, 255, 1)" stroke-width="1.5"></path><path d="M1306.91 84.17L1306.91 84.17" stroke="rgba(86, 165, 255, 1)" stroke-width="1.5"></path><path d="M1306.91 84.17L1240.84 224.66" stroke="rgba(86, 165, 255, 1)" stroke-width="1.5"></path><path d="M1240.84 224.66L1240.84 224.66" stroke="rgba(86, 165, 255, 1)" stroke-width="1.5"></path><path d="M1240.84 224.66L1257.36 362.84" stroke="rgba(86, 165, 255, 1)" stroke-width="1.5"></path><path d="M1240.84 224.66L1431.87 248.34" stroke="rgba(86, 165, 255, 1)" stroke-width="1.5"></path><path d="M1257.36 362.84L1257.36 362.84" stroke="rgba(86, 165, 255, 1)" stroke-width="1.5"></path><path d="M1257.36 362.84L1259.17 547.17" stroke="rgba(86, 165, 255, 1)" stroke-width="1.5"></path><path d="M1257.36 362.84L1443.8 348.86" stroke="rgba(86, 165, 255, 1)" stroke-width="1.5"></path><path d="M1257.36 362.84L1431.87 248.34" stroke="rgba(86, 165, 255, 1)" stroke-width="1.5"></path><path d="M1259.17 547.17L1259.17 547.17" stroke="rgba(86, 165, 255, 1)" stroke-width="1.5"></path><path d="M1259.17 547.17L1412.45 561.75" stroke="rgba(86, 165, 255, 1)" stroke-width="1.5"></path><path d="M1259.17 547.17L1443.8 348.86" stroke="rgba(86, 165, 255, 1)" stroke-width="1.5"></path><path d="M1427.32 -98.16L1427.32 -98.16" stroke="rgba(86, 165, 255, 1)" stroke-width="1.5"></path><path d="M1427.32 -98.16L1555.7 -53.31" stroke="rgba(86, 165, 255, 1)" stroke-width="1.5"></path><path d="M1431.87 248.34L1431.87 248.34" stroke="rgba(86, 165, 255, 1)" stroke-width="1.5"></path><path d="M1431.87 248.34L1443.8 348.86" stroke="rgba(86, 165, 255, 1)" stroke-width="1.5"></path><path d="M1431.87 248.34L1553.46 247.59" stroke="rgba(86, 165, 255, 1)" stroke-width="1.5"></path><path d="M1431.87 248.34L1306.91 84.17" stroke="rgba(86, 165, 255, 1)" stroke-width="1.5"></path><path d="M1431.87 248.34L1605.74 368.32" stroke="rgba(86, 165, 255, 1)" stroke-width="1.5"></path><path d="M1443.8 348.86L1443.8 348.86" stroke="rgba(86, 165, 255, 1)" stroke-width="1.5"></path><path d="M1443.8 348.86L1553.46 247.59" stroke="rgba(86, 165, 255, 1)" stroke-width="1.5"></path><path d="M1443.8 348.86L1605.74 368.32" stroke="rgba(86, 165, 255, 1)" stroke-width="1.5"></path><path d="M1412.45 561.75L1412.45 561.75" stroke="rgba(86, 165, 255, 1)" stroke-width="1.5"></path><path d="M1412.45 561.75L1553.59 519.12" stroke="rgba(86, 165, 255, 1)" stroke-width="1.5"></path><path d="M1412.45 561.75L1443.8 348.86" stroke="rgba(86, 165, 255, 1)" stroke-width="1.5"></path><path d="M1412.45 561.75L1257.36 362.84" stroke="rgba(86, 165, 255, 1)" stroke-width="1.5"></path><path d="M1555.7 -53.31L1555.7 -53.31" stroke="rgba(86, 165, 255, 1)" stroke-width="1.5"></path><path d="M1555.7 -53.31L1544.68 65.53" stroke="rgba(86, 165, 255, 1)" stroke-width="1.5"></path><path d="M1555.7 -53.31L1752.95 -72.05" stroke="rgba(86, 165, 255, 1)" stroke-width="1.5"></path><path d="M1544.68 65.53L1544.68 65.53" stroke="rgba(86, 165, 255, 1)" stroke-width="1.5"></path><path d="M1544.68 65.53L1707.67 95.22" stroke="rgba(86, 165, 255, 1)" stroke-width="1.5"></path><path d="M1544.68 65.53L1553.46 247.59" stroke="rgba(86, 165, 255, 1)" stroke-width="1.5"></path><path d="M1553.46 247.59L1553.46 247.59" stroke="rgba(86, 165, 255, 1)" stroke-width="1.5"></path><path d="M1553.46 247.59L1605.74 368.32" stroke="rgba(86, 165, 255, 1)" stroke-width="1.5"></path><path d="M1553.46 247.59L1731.4 246.54" stroke="rgba(86, 165, 255, 1)" stroke-width="1.5"></path><path d="M1553.46 247.59L1707.67 95.22" stroke="rgba(86, 165, 255, 1)" stroke-width="1.5"></path><path d="M1605.74 368.32L1605.74 368.32" stroke="rgba(86, 165, 255, 1)" stroke-width="1.5"></path><path d="M1605.74 368.32L1553.59 519.12" stroke="rgba(86, 165, 255, 1)" stroke-width="1.5"></path><path d="M1605.74 368.32L1731.4 246.54" stroke="rgba(86, 165, 255, 1)" stroke-width="1.5"></path><path d="M1553.59 519.12L1553.59 519.12" stroke="rgba(86, 165, 255, 1)" stroke-width="1.5"></path><path d="M1752.95 -72.05L1752.95 -72.05" stroke="rgba(86, 165, 255, 1)" stroke-width="1.5"></path><path d="M1752.95 -72.05L1862.95 -92.54" stroke="rgba(86, 165, 255, 1)" stroke-width="1.5"></path><path d="M1752.95 -72.05L1707.67 95.22" stroke="rgba(86, 165, 255, 1)" stroke-width="1.5"></path><path d="M1707.67 95.22L1707.67 95.22" stroke="rgba(86, 165, 255, 1)" stroke-width="1.5"></path><path d="M1707.67 95.22L1731.4 246.54" stroke="rgba(86, 165, 255, 1)" stroke-width="1.5"></path><path d="M1707.67 95.22L1847.51 246.53" stroke="rgba(86, 165, 255, 1)" stroke-width="1.5"></path><path d="M1707.67 95.22L1555.7 -53.31" stroke="rgba(86, 165, 255, 1)" stroke-width="1.5"></path><path d="M1731.4 246.54L1731.4 246.54" stroke="rgba(86, 165, 255, 1)" stroke-width="1.5"></path><path d="M1731.4 246.54L1847.51 246.53" stroke="rgba(86, 165, 255, 1)" stroke-width="1.5"></path><path d="M1731.4 246.54L1862.85 338.51" stroke="rgba(86, 165, 255, 1)" stroke-width="1.5"></path><path d="M1731.4 246.54L1544.68 65.53" stroke="rgba(86, 165, 255, 1)" stroke-width="1.5"></path><path d="M1737.51 515.46L1737.51 515.46" stroke="rgba(86, 165, 255, 1)" stroke-width="1.5"></path><path d="M1737.51 515.46L1840.7 506.53" stroke="rgba(86, 165, 255, 1)" stroke-width="1.5"></path><path d="M1737.51 515.46L1553.59 519.12" stroke="rgba(86, 165, 255, 1)" stroke-width="1.5"></path><path d="M1737.51 515.46L1605.74 368.32" stroke="rgba(86, 165, 255, 1)" stroke-width="1.5"></path><path d="M1737.51 515.46L1862.85 338.51" stroke="rgba(86, 165, 255, 1)" stroke-width="1.5"></path><path d="M1862.95 -92.54L1862.95 -92.54" stroke="rgba(86, 165, 255, 1)" stroke-width="1.5"></path><path d="M1862.95 -92.54L2035.15 -103.7" stroke="rgba(86, 165, 255, 1)" stroke-width="1.5"></path><path d="M1847.51 246.53L1847.51 246.53" stroke="rgba(86, 165, 255, 1)" stroke-width="1.5"></path><path d="M1847.51 246.53L1862.85 338.51" stroke="rgba(86, 165, 255, 1)" stroke-width="1.5"></path><path d="M1847.51 246.53L2018.84 341.53" stroke="rgba(86, 165, 255, 1)" stroke-width="1.5"></path><path d="M1862.85 338.51L1862.85 338.51" stroke="rgba(86, 165, 255, 1)" stroke-width="1.5"></path><path d="M1862.85 338.51L2018.84 341.53" stroke="rgba(86, 165, 255, 1)" stroke-width="1.5"></path><path d="M1840.7 506.53L1840.7 506.53" stroke="rgba(86, 165, 255, 1)" stroke-width="1.5"></path><path d="M1840.7 506.53L1862.85 338.51" stroke="rgba(86, 165, 255, 1)" stroke-width="1.5"></path><path d="M1840.7 506.53L2018.71 510.02" stroke="rgba(86, 165, 255, 1)" stroke-width="1.5"></path><path d="M1840.7 506.53L2018.84 341.53" stroke="rgba(86, 165, 255, 1)" stroke-width="1.5"></path><path d="M1840.7 506.53L1847.51 246.53" stroke="rgba(86, 165, 255, 1)" stroke-width="1.5"></path><path d="M1840.7 506.53L1605.74 368.32" stroke="rgba(86, 165, 255, 1)" stroke-width="1.5"></path><path d="M2035.15 -103.7L2035.15 -103.7" stroke="rgba(86, 165, 255, 1)" stroke-width="1.5"></path><path d="M2035.15 -103.7L2176.11 -88.31" stroke="rgba(86, 165, 255, 1)" stroke-width="1.5"></path><path d="M1993.16 85.59L1993.16 85.59" stroke="rgba(86, 165, 255, 1)" stroke-width="1.5"></path><path d="M1993.16 85.59L2035.15 -103.7" stroke="rgba(86, 165, 255, 1)" stroke-width="1.5"></path><path d="M1993.16 85.59L2191.39 60.75" stroke="rgba(86, 165, 255, 1)" stroke-width="1.5"></path><path d="M1993.16 85.59L1847.51 246.53" stroke="rgba(86, 165, 255, 1)" stroke-width="1.5"></path><path d="M1993.16 85.59L1862.95 -92.54" stroke="rgba(86, 165, 255, 1)" stroke-width="1.5"></path><path d="M2018.84 341.53L2018.84 341.53" stroke="rgba(86, 165, 255, 1)" stroke-width="1.5"></path><path d="M2018.84 341.53L2018.71 510.02" stroke="rgba(86, 165, 255, 1)" stroke-width="1.5"></path><path d="M2018.84 341.53L2202.99 377.97" stroke="rgba(86, 165, 255, 1)" stroke-width="1.5"></path><path d="M2018.84 341.53L2188.17 240.13" stroke="rgba(86, 165, 255, 1)" stroke-width="1.5"></path><path d="M2018.71 510.02L2018.71 510.02" stroke="rgba(86, 165, 255, 1)" stroke-width="1.5"></path><path d="M2018.71 510.02L2163.98 528.13" stroke="rgba(86, 165, 255, 1)" stroke-width="1.5"></path><path d="M2018.71 510.02L2202.99 377.97" stroke="rgba(86, 165, 255, 1)" stroke-width="1.5"></path><path d="M2018.71 510.02L1862.85 338.51" stroke="rgba(86, 165, 255, 1)" stroke-width="1.5"></path><path d="M2176.11 -88.31L2176.11 -88.31" stroke="rgba(86, 165, 255, 1)" stroke-width="1.5"></path><path d="M2176.11 -88.31L2191.39 60.75" stroke="rgba(86, 165, 255, 1)" stroke-width="1.5"></path><path d="M2176.11 -88.31L1993.16 85.59" stroke="rgba(86, 165, 255, 1)" stroke-width="1.5"></path><path d="M2176.11 -88.31L1862.95 -92.54" stroke="rgba(86, 165, 255, 1)" stroke-width="1.5"></path><path d="M2191.39 60.75L2191.39 60.75" stroke="rgba(86, 165, 255, 1)" stroke-width="1.5"></path><path d="M2191.39 60.75L2188.17 240.13" stroke="rgba(86, 165, 255, 1)" stroke-width="1.5"></path><path d="M2191.39 60.75L2035.15 -103.7" stroke="rgba(86, 165, 255, 1)" stroke-width="1.5"></path><path d="M2191.39 60.75L2202.99 377.97" stroke="rgba(86, 165, 255, 1)" stroke-width="1.5"></path><path d="M2188.17 240.13L2188.17 240.13" stroke="rgba(86, 165, 255, 1)" stroke-width="1.5"></path><path d="M2188.17 240.13L2202.99 377.97" stroke="rgba(86, 165, 255, 1)" stroke-width="1.5"></path><path d="M2188.17 240.13L1993.16 85.59" stroke="rgba(86, 165, 255, 1)" stroke-width="1.5"></path><path d="M2188.17 240.13L2163.98 528.13" stroke="rgba(86, 165, 255, 1)" stroke-width="1.5"></path><path d="M2188.17 240.13L2018.71 510.02" stroke="rgba(86, 165, 255, 1)" stroke-width="1.5"></path><path d="M2202.99 377.97L2202.99 377.97" stroke="rgba(86, 165, 255, 1)" stroke-width="1.5"></path><path d="M2202.99 377.97L2163.98 528.13" stroke="rgba(86, 165, 255, 1)" stroke-width="1.5"></path><path d="M2163.98 528.13L2163.98 528.13" stroke="rgba(86, 165, 255, 1)" stroke-width="1.5"></path><path d="M2163.98 528.13L2018.84 341.53" stroke="rgba(86, 165, 255, 1)" stroke-width="1.5"></path><path d="M2163.98 528.13L1840.7 506.53" stroke="rgba(86, 165, 255, 1)" stroke-width="1.5"></path><path d="M2163.98 528.13L1862.85 338.51" stroke="rgba(86, 165, 255, 1)" stroke-width="1.5"></path><circle r="5" cx="-96.26" cy="549.5" fill="rgba(86, 165, 255, 1)"></circle><circle r="5" cx="57.19" cy="352.67" fill="rgba(86, 165, 255, 1)"></circle><circle r="5" cx="63.77" cy="507.98" fill="rgba(86, 165, 255, 1)"></circle><circle r="5" cx="196.42" cy="403.34" fill="rgba(86, 165, 255, 1)"></circle><circle r="5" cx="252.02" cy="544.8" fill="rgba(86, 165, 255, 1)"></circle><circle r="5" cx="353.84" cy="339.67" fill="rgba(86, 165, 255, 1)"></circle><circle r="5" cx="354.3" cy="557.24" fill="rgba(86, 165, 255, 1)"></circle><circle r="5" cx="506.21" cy="262.34" fill="rgba(86, 165, 255, 1)"></circle><circle r="5" cx="514.52" cy="400.1" fill="rgba(86, 165, 255, 1)"></circle><circle r="5" cx="503.63" cy="494.86" fill="rgba(86, 165, 255, 1)"></circle><circle r="5" cx="656.47" cy="215.62" fill="rgba(86, 165, 255, 1)"></circle><circle r="5" cx="676.65" cy="376.91" fill="rgba(86, 165, 255, 1)"></circle><circle r="5" cx="688.4" cy="517.82" fill="rgba(86, 165, 255, 1)"></circle><circle r="5" cx="797.52" cy="257.2" fill="rgba(86, 165, 255, 1)"></circle><circle r="5" cx="822.15" cy="499" fill="rgba(86, 165, 255, 1)"></circle><circle r="5" cx="967.28" cy="250.12" fill="rgba(86, 165, 255, 1)"></circle><circle r="5" cx="1000.57" cy="384.95" fill="rgba(86, 165, 255, 1)"></circle><circle r="5" cx="981" cy="514.18" fill="rgba(86, 165, 255, 1)"></circle><circle r="5" cx="1124.82" cy="84.57" fill="rgba(86, 165, 255, 1)"></circle><circle r="5" cx="1088.16" cy="213.85" fill="rgba(86, 165, 255, 1)"></circle><circle r="5" cx="1093.05" cy="533.95" fill="rgba(86, 165, 255, 1)"></circle><circle r="5" cx="1306.91" cy="84.17" fill="rgba(86, 165, 255, 1)"></circle><circle r="5" cx="1240.84" cy="224.66" fill="rgba(86, 165, 255, 1)"></circle><circle r="5" cx="1257.36" cy="362.84" fill="rgba(86, 165, 255, 1)"></circle><circle r="5" cx="1259.17" cy="547.17" fill="rgba(86, 165, 255, 1)"></circle><circle r="5" cx="1427.32" cy="-98.16" fill="rgba(86, 165, 255, 1)"></circle><circle r="5" cx="1431.87" cy="248.34" fill="rgba(86, 165, 255, 1)"></circle><circle r="5" cx="1443.8" cy="348.86" fill="rgba(86, 165, 255, 1)"></circle><circle r="5" cx="1412.45" cy="561.75" fill="rgba(86, 165, 255, 1)"></circle><circle r="5" cx="1555.7" cy="-53.31" fill="rgba(86, 165, 255, 1)"></circle><circle r="5" cx="1544.68" cy="65.53" fill="rgba(86, 165, 255, 1)"></circle><circle r="5" cx="1553.46" cy="247.59" fill="rgba(86, 165, 255, 1)"></circle><circle r="5" cx="1605.74" cy="368.32" fill="rgba(86, 165, 255, 1)"></circle><circle r="5" cx="1553.59" cy="519.12" fill="rgba(86, 165, 255, 1)"></circle><circle r="5" cx="1752.95" cy="-72.05" fill="rgba(86, 165, 255, 1)"></circle><circle r="5" cx="1707.67" cy="95.22" fill="rgba(86, 165, 255, 1)"></circle><circle r="5" cx="1731.4" cy="246.54" fill="rgba(86, 165, 255, 1)"></circle><circle r="5" cx="1737.51" cy="515.46" fill="rgba(86, 165, 255, 1)"></circle><circle r="5" cx="1862.95" cy="-92.54" fill="rgba(86, 165, 255, 1)"></circle><circle r="5" cx="1847.51" cy="246.53" fill="rgba(86, 165, 255, 1)"></circle><circle r="5" cx="1862.85" cy="338.51" fill="rgba(86, 165, 255, 1)"></circle><circle r="5" cx="1840.7" cy="506.53" fill="rgba(86, 165, 255, 1)"></circle><circle r="5" cx="2035.15" cy="-103.7" fill="rgba(86, 165, 255, 1)"></circle><circle r="5" cx="1993.16" cy="85.59" fill="rgba(86, 165, 255, 1)"></circle><circle r="5" cx="2018.84" cy="341.53" fill="rgba(86, 165, 255, 1)"></circle><circle r="5" cx="2018.71" cy="510.02" fill="rgba(86, 165, 255, 1)"></circle><circle r="5" cx="2176.11" cy="-88.31" fill="rgba(86, 165, 255, 1)"></circle><circle r="5" cx="2191.39" cy="60.75" fill="rgba(86, 165, 255, 1)"></circle><circle r="5" cx="2188.17" cy="240.13" fill="rgba(86, 165, 255, 1)"></circle><circle r="5" cx="2202.99" cy="377.97" fill="rgba(86, 165, 255, 1)"></circle><circle r="5" cx="2163.98" cy="528.13" fill="rgba(86, 165, 255, 1)"></circle><path d="M-77.08 353.87L-77.08 353.87" stroke="hsl(212, 100%, 86.9%)" stroke-width="1.5"></path><path d="M-77.08 353.87L37.81 399.95" stroke="hsl(212, 100%, 86.9%)" stroke-width="1.5"></path><path d="M-77.08 353.87L54.41 490.14" stroke="hsl(212, 100%, 86.9%)" stroke-width="1.5"></path><path d="M-77.08 353.87L221.87 388.92" stroke="hsl(212, 100%, 86.9%)" stroke-width="1.5"></path><path d="M-77.08 353.87L196.9 558.81" stroke="hsl(212, 100%, 86.9%)" stroke-width="1.5"></path><path d="M856.02 559.99L856.02 559.99" stroke="hsl(212, 100%, 86.9%)" stroke-width="1.5"></path><path d="M856.02 559.99L1005.28 496.18" stroke="hsl(212, 100%, 86.9%)" stroke-width="1.5"></path><path d="M856.02 559.99L655.11 522.07" stroke="hsl(212, 100%, 86.9%)" stroke-width="1.5"></path><path d="M1705.62 -64.43L1705.62 -64.43" stroke="hsl(212, 100%, 86.9%)" stroke-width="1.5"></path><path d="M1705.62 -64.43L1756.66 38.28" stroke="hsl(212, 100%, 86.9%)" stroke-width="1.5"></path><path d="M1705.62 -64.43L1857.82 -89.49" stroke="hsl(212, 100%, 86.9%)" stroke-width="1.5"></path><path d="M1705.62 -64.43L1602.83 58.09" stroke="hsl(212, 100%, 86.9%)" stroke-width="1.5"></path><path d="M1705.62 -64.43L1739.68 238.5" stroke="hsl(212, 100%, 86.9%)" stroke-width="1.5"></path><path d="M1705.62 -64.43L1999.84 104.71" stroke="hsl(212, 100%, 86.9%)" stroke-width="1.5"></path><path d="M2171.18 -88.79L2171.18 -88.79" stroke="hsl(212, 100%, 86.9%)" stroke-width="1.5"></path><path d="M2171.18 -88.79L2182.79 66.51" stroke="hsl(212, 100%, 86.9%)" stroke-width="1.5"></path><path d="M2171.18 -88.79L1999.84 104.71" stroke="hsl(212, 100%, 86.9%)" stroke-width="1.5"></path><path d="M2171.18 -88.79L1857.82 -89.49" stroke="hsl(212, 100%, 86.9%)" stroke-width="1.5"></path><path d="M2171.18 -88.79L2058.27 208.35" stroke="hsl(212, 100%, 86.9%)" stroke-width="1.5"></path><path d="M2171.18 -88.79L1756.66 38.28" stroke="hsl(212, 100%, 86.9%)" stroke-width="1.5"></path><path d="M2171.18 -88.79L1865.03 260.28" stroke="hsl(212, 100%, 86.9%)" stroke-width="1.5"></path><path d="M37.81 399.95L37.81 399.95" stroke="hsl(212, 100%, 86.9%)" stroke-width="1.5"></path><path d="M37.81 399.95L54.41 490.14" stroke="hsl(212, 100%, 86.9%)" stroke-width="1.5"></path><path d="M37.81 399.95L221.87 388.92" stroke="hsl(212, 100%, 86.9%)" stroke-width="1.5"></path><path d="M54.41 490.14L54.41 490.14" stroke="hsl(212, 100%, 86.9%)" stroke-width="1.5"></path><path d="M54.41 490.14L196.9 558.81" stroke="hsl(212, 100%, 86.9%)" stroke-width="1.5"></path><path d="M54.41 490.14L221.87 388.92" stroke="hsl(212, 100%, 86.9%)" stroke-width="1.5"></path><path d="M221.87 388.92L221.87 388.92" stroke="hsl(212, 100%, 86.9%)" stroke-width="1.5"></path><path d="M221.87 388.92L372.15 408.28" stroke="hsl(212, 100%, 86.9%)" stroke-width="1.5"></path><path d="M221.87 388.92L196.9 558.81" stroke="hsl(212, 100%, 86.9%)" stroke-width="1.5"></path><path d="M196.9 558.81L196.9 558.81" stroke="hsl(212, 100%, 86.9%)" stroke-width="1.5"></path><path d="M372.15 408.28L372.15 408.28" stroke="hsl(212, 100%, 86.9%)" stroke-width="1.5"></path><path d="M372.15 408.28L553.27 392.61" stroke="hsl(212, 100%, 86.9%)" stroke-width="1.5"></path><path d="M372.15 408.28L540.99 530.86" stroke="hsl(212, 100%, 86.9%)" stroke-width="1.5"></path><path d="M372.15 408.28L196.9 558.81" stroke="hsl(212, 100%, 86.9%)" stroke-width="1.5"></path><path d="M372.15 408.28L655.11 522.07" stroke="hsl(212, 100%, 86.9%)" stroke-width="1.5"></path><path d="M553.27 392.61L553.27 392.61" stroke="hsl(212, 100%, 86.9%)" stroke-width="1.5"></path><path d="M553.27 392.61L540.99 530.86" stroke="hsl(212, 100%, 86.9%)" stroke-width="1.5"></path><path d="M553.27 392.61L691.51 380.08" stroke="hsl(212, 100%, 86.9%)" stroke-width="1.5"></path><path d="M540.99 530.86L540.99 530.86" stroke="hsl(212, 100%, 86.9%)" stroke-width="1.5"></path><path d="M540.99 530.86L655.11 522.07" stroke="hsl(212, 100%, 86.9%)" stroke-width="1.5"></path><path d="M691.51 380.08L691.51 380.08" stroke="hsl(212, 100%, 86.9%)" stroke-width="1.5"></path><path d="M691.51 380.08L655.11 522.07" stroke="hsl(212, 100%, 86.9%)" stroke-width="1.5"></path><path d="M691.51 380.08L540.99 530.86" stroke="hsl(212, 100%, 86.9%)" stroke-width="1.5"></path><path d="M691.51 380.08L856.02 559.99" stroke="hsl(212, 100%, 86.9%)" stroke-width="1.5"></path><path d="M691.51 380.08L372.15 408.28" stroke="hsl(212, 100%, 86.9%)" stroke-width="1.5"></path><path d="M691.51 380.08L1005.28 496.18" stroke="hsl(212, 100%, 86.9%)" stroke-width="1.5"></path><path d="M655.11 522.07L655.11 522.07" stroke="hsl(212, 100%, 86.9%)" stroke-width="1.5"></path><path d="M655.11 522.07L553.27 392.61" stroke="hsl(212, 100%, 86.9%)" stroke-width="1.5"></path><path d="M655.11 522.07L1005.28 496.18" stroke="hsl(212, 100%, 86.9%)" stroke-width="1.5"></path><path d="M1005.28 496.18L1005.28 496.18" stroke="hsl(212, 100%, 86.9%)" stroke-width="1.5"></path><path d="M1005.28 496.18L1105.74 402.3" stroke="hsl(212, 100%, 86.9%)" stroke-width="1.5"></path><path d="M1005.28 496.18L1254.09 534.88" stroke="hsl(212, 100%, 86.9%)" stroke-width="1.5"></path><path d="M1005.28 496.18L1107.76 242.85" stroke="hsl(212, 100%, 86.9%)" stroke-width="1.5"></path><path d="M1107.76 242.85L1107.76 242.85" stroke="hsl(212, 100%, 86.9%)" stroke-width="1.5"></path><path d="M1107.76 242.85L1105.74 402.3" stroke="hsl(212, 100%, 86.9%)" stroke-width="1.5"></path><path d="M1107.76 242.85L1254.09 534.88" stroke="hsl(212, 100%, 86.9%)" stroke-width="1.5"></path><path d="M1107.76 242.85L1428.64 358.04" stroke="hsl(212, 100%, 86.9%)" stroke-width="1.5"></path><path d="M1107.76 242.85L1456.48 225.66" stroke="hsl(212, 100%, 86.9%)" stroke-width="1.5"></path><path d="M1105.74 402.3L1105.74 402.3" stroke="hsl(212, 100%, 86.9%)" stroke-width="1.5"></path><path d="M1254.09 534.88L1254.09 534.88" stroke="hsl(212, 100%, 86.9%)" stroke-width="1.5"></path><path d="M1254.09 534.88L1421.59 493.69" stroke="hsl(212, 100%, 86.9%)" stroke-width="1.5"></path><path d="M1254.09 534.88L1105.74 402.3" stroke="hsl(212, 100%, 86.9%)" stroke-width="1.5"></path><path d="M1254.09 534.88L1428.64 358.04" stroke="hsl(212, 100%, 86.9%)" stroke-width="1.5"></path><path d="M1456.48 225.66L1456.48 225.66" stroke="hsl(212, 100%, 86.9%)" stroke-width="1.5"></path><path d="M1456.48 225.66L1428.64 358.04" stroke="hsl(212, 100%, 86.9%)" stroke-width="1.5"></path><path d="M1456.48 225.66L1560.58 373.51" stroke="hsl(212, 100%, 86.9%)" stroke-width="1.5"></path><path d="M1456.48 225.66L1602.83 58.09" stroke="hsl(212, 100%, 86.9%)" stroke-width="1.5"></path><path d="M1456.48 225.66L1421.59 493.69" stroke="hsl(212, 100%, 86.9%)" stroke-width="1.5"></path><path d="M1456.48 225.66L1739.68 238.5" stroke="hsl(212, 100%, 86.9%)" stroke-width="1.5"></path><path d="M1456.48 225.66L1752.08 391.5" stroke="hsl(212, 100%, 86.9%)" stroke-width="1.5"></path><path d="M1428.64 358.04L1428.64 358.04" stroke="hsl(212, 100%, 86.9%)" stroke-width="1.5"></path><path d="M1428.64 358.04L1560.58 373.51" stroke="hsl(212, 100%, 86.9%)" stroke-width="1.5"></path><path d="M1428.64 358.04L1421.59 493.69" stroke="hsl(212, 100%, 86.9%)" stroke-width="1.5"></path><path d="M1428.64 358.04L1593.54 551.1" stroke="hsl(212, 100%, 86.9%)" stroke-width="1.5"></path><path d="M1421.59 493.69L1421.59 493.69" stroke="hsl(212, 100%, 86.9%)" stroke-width="1.5"></path><path d="M1421.59 493.69L1593.54 551.1" stroke="hsl(212, 100%, 86.9%)" stroke-width="1.5"></path><path d="M1421.59 493.69L1560.58 373.51" stroke="hsl(212, 100%, 86.9%)" stroke-width="1.5"></path><path d="M1602.83 58.09L1602.83 58.09" stroke="hsl(212, 100%, 86.9%)" stroke-width="1.5"></path><path d="M1602.83 58.09L1756.66 38.28" stroke="hsl(212, 100%, 86.9%)" stroke-width="1.5"></path><path d="M1560.58 373.51L1560.58 373.51" stroke="hsl(212, 100%, 86.9%)" stroke-width="1.5"></path><path d="M1560.58 373.51L1593.54 551.1" stroke="hsl(212, 100%, 86.9%)" stroke-width="1.5"></path><path d="M1593.54 551.1L1593.54 551.1" stroke="hsl(212, 100%, 86.9%)" stroke-width="1.5"></path><path d="M1593.54 551.1L1689.72 554.5" stroke="hsl(212, 100%, 86.9%)" stroke-width="1.5"></path><path d="M1593.54 551.1L1752.08 391.5" stroke="hsl(212, 100%, 86.9%)" stroke-width="1.5"></path><path d="M1593.54 551.1L1867.93 510.03" stroke="hsl(212, 100%, 86.9%)" stroke-width="1.5"></path><path d="M1756.66 38.28L1756.66 38.28" stroke="hsl(212, 100%, 86.9%)" stroke-width="1.5"></path><path d="M1756.66 38.28L1857.82 -89.49" stroke="hsl(212, 100%, 86.9%)" stroke-width="1.5"></path><path d="M1756.66 38.28L1739.68 238.5" stroke="hsl(212, 100%, 86.9%)" stroke-width="1.5"></path><path d="M1739.68 238.5L1739.68 238.5" stroke="hsl(212, 100%, 86.9%)" stroke-width="1.5"></path><path d="M1739.68 238.5L1865.03 260.28" stroke="hsl(212, 100%, 86.9%)" stroke-width="1.5"></path><path d="M1739.68 238.5L1752.08 391.5" stroke="hsl(212, 100%, 86.9%)" stroke-width="1.5"></path><path d="M1739.68 238.5L1842.71 395.47" stroke="hsl(212, 100%, 86.9%)" stroke-width="1.5"></path><path d="M1739.68 238.5L1560.58 373.51" stroke="hsl(212, 100%, 86.9%)" stroke-width="1.5"></path><path d="M1752.08 391.5L1752.08 391.5" stroke="hsl(212, 100%, 86.9%)" stroke-width="1.5"></path><path d="M1752.08 391.5L1842.71 395.47" stroke="hsl(212, 100%, 86.9%)" stroke-width="1.5"></path><path d="M1752.08 391.5L1867.93 510.03" stroke="hsl(212, 100%, 86.9%)" stroke-width="1.5"></path><path d="M1752.08 391.5L1865.03 260.28" stroke="hsl(212, 100%, 86.9%)" stroke-width="1.5"></path><path d="M1689.72 554.5L1689.72 554.5" stroke="hsl(212, 100%, 86.9%)" stroke-width="1.5"></path><path d="M1857.82 -89.49L1857.82 -89.49" stroke="hsl(212, 100%, 86.9%)" stroke-width="1.5"></path><path d="M1865.03 260.28L1865.03 260.28" stroke="hsl(212, 100%, 86.9%)" stroke-width="1.5"></path><path d="M1865.03 260.28L1842.71 395.47" stroke="hsl(212, 100%, 86.9%)" stroke-width="1.5"></path><path d="M1865.03 260.28L2058.27 208.35" stroke="hsl(212, 100%, 86.9%)" stroke-width="1.5"></path><path d="M1842.71 395.47L1842.71 395.47" stroke="hsl(212, 100%, 86.9%)" stroke-width="1.5"></path><path d="M1842.71 395.47L1867.93 510.03" stroke="hsl(212, 100%, 86.9%)" stroke-width="1.5"></path><path d="M1867.93 510.03L1867.93 510.03" stroke="hsl(212, 100%, 86.9%)" stroke-width="1.5"></path><path d="M1867.93 510.03L2029.69 524.92" stroke="hsl(212, 100%, 86.9%)" stroke-width="1.5"></path><path d="M1999.84 104.71L1999.84 104.71" stroke="hsl(212, 100%, 86.9%)" stroke-width="1.5"></path><path d="M1999.84 104.71L2058.27 208.35" stroke="hsl(212, 100%, 86.9%)" stroke-width="1.5"></path><path d="M1999.84 104.71L2182.79 66.51" stroke="hsl(212, 100%, 86.9%)" stroke-width="1.5"></path><path d="M1999.84 104.71L1865.03 260.28" stroke="hsl(212, 100%, 86.9%)" stroke-width="1.5"></path><path d="M1999.84 104.71L1857.82 -89.49" stroke="hsl(212, 100%, 86.9%)" stroke-width="1.5"></path><path d="M1999.84 104.71L1756.66 38.28" stroke="hsl(212, 100%, 86.9%)" stroke-width="1.5"></path><path d="M2058.27 208.35L2058.27 208.35" stroke="hsl(212, 100%, 86.9%)" stroke-width="1.5"></path><path d="M2058.27 208.35L2031.96 385.32" stroke="hsl(212, 100%, 86.9%)" stroke-width="1.5"></path><path d="M2058.27 208.35L2182.79 66.51" stroke="hsl(212, 100%, 86.9%)" stroke-width="1.5"></path><path d="M2058.27 208.35L2150.09 378.06" stroke="hsl(212, 100%, 86.9%)" stroke-width="1.5"></path><path d="M2058.27 208.35L1842.71 395.47" stroke="hsl(212, 100%, 86.9%)" stroke-width="1.5"></path><path d="M2031.96 385.32L2031.96 385.32" stroke="hsl(212, 100%, 86.9%)" stroke-width="1.5"></path><path d="M2031.96 385.32L2150.09 378.06" stroke="hsl(212, 100%, 86.9%)" stroke-width="1.5"></path><path d="M2031.96 385.32L2029.69 524.92" stroke="hsl(212, 100%, 86.9%)" stroke-width="1.5"></path><path d="M2031.96 385.32L2147.72 508.69" stroke="hsl(212, 100%, 86.9%)" stroke-width="1.5"></path><path d="M2031.96 385.32L1842.71 395.47" stroke="hsl(212, 100%, 86.9%)" stroke-width="1.5"></path><path d="M2031.96 385.32L1867.93 510.03" stroke="hsl(212, 100%, 86.9%)" stroke-width="1.5"></path><path d="M2029.69 524.92L2029.69 524.92" stroke="hsl(212, 100%, 86.9%)" stroke-width="1.5"></path><path d="M2029.69 524.92L2147.72 508.69" stroke="hsl(212, 100%, 86.9%)" stroke-width="1.5"></path><path d="M2182.79 66.51L2182.79 66.51" stroke="hsl(212, 100%, 86.9%)" stroke-width="1.5"></path><path d="M2182.79 66.51L2150.09 378.06" stroke="hsl(212, 100%, 86.9%)" stroke-width="1.5"></path><path d="M2182.79 66.51L2031.96 385.32" stroke="hsl(212, 100%, 86.9%)" stroke-width="1.5"></path><path d="M2182.79 66.51L1857.82 -89.49" stroke="hsl(212, 100%, 86.9%)" stroke-width="1.5"></path><path d="M2150.09 378.06L2150.09 378.06" stroke="hsl(212, 100%, 86.9%)" stroke-width="1.5"></path><path d="M2150.09 378.06L2147.72 508.69" stroke="hsl(212, 100%, 86.9%)" stroke-width="1.5"></path><path d="M2150.09 378.06L2029.69 524.92" stroke="hsl(212, 100%, 86.9%)" stroke-width="1.5"></path><path d="M2147.72 508.69L2147.72 508.69" stroke="hsl(212, 100%, 86.9%)" stroke-width="1.5"></path><path d="M2147.72 508.69L1867.93 510.03" stroke="hsl(212, 100%, 86.9%)" stroke-width="1.5"></path><circle r="25" cx="-77.08" cy="353.87" fill="url(&quot;#SvgjsRadialGradient1126&quot;)"></circle><circle r="25" cx="856.02" cy="559.99" fill="url(&quot;#SvgjsRadialGradient1126&quot;)"></circle><circle r="25" cx="1705.62" cy="-64.43" fill="url(&quot;#SvgjsRadialGradient1126&quot;)"></circle><circle r="25" cx="2171.18" cy="-88.79" fill="url(&quot;#SvgjsRadialGradient1126&quot;)"></circle><circle r="5" cx="37.81" cy="399.95" fill="#abd2ff"></circle><circle r="5" cx="54.41" cy="490.14" fill="#abd2ff"></circle><circle r="5" cx="221.87" cy="388.92" fill="#abd2ff"></circle><circle r="5" cx="196.9" cy="558.81" fill="#abd2ff"></circle><circle r="5" cx="372.15" cy="408.28" fill="#abd2ff"></circle><circle r="5" cx="553.27" cy="392.61" fill="#abd2ff"></circle><circle r="5" cx="540.99" cy="530.86" fill="#abd2ff"></circle><circle r="5" cx="691.51" cy="380.08" fill="#abd2ff"></circle><circle r="5" cx="655.11" cy="522.07" fill="#abd2ff"></circle><circle r="5" cx="1005.28" cy="496.18" fill="#abd2ff"></circle><circle r="5" cx="1107.76" cy="242.85" fill="#abd2ff"></circle><circle r="5" cx="1105.74" cy="402.3" fill="#abd2ff"></circle><circle r="5" cx="1254.09" cy="534.88" fill="#abd2ff"></circle><circle r="5" cx="1456.48" cy="225.66" fill="#abd2ff"></circle><circle r="5" cx="1428.64" cy="358.04" fill="#abd2ff"></circle><circle r="5" cx="1421.59" cy="493.69" fill="#abd2ff"></circle><circle r="5" cx="1602.83" cy="58.09" fill="#abd2ff"></circle><circle r="5" cx="1560.58" cy="373.51" fill="#abd2ff"></circle><circle r="5" cx="1593.54" cy="551.1" fill="#abd2ff"></circle><circle r="5" cx="1756.66" cy="38.28" fill="#abd2ff"></circle><circle r="5" cx="1739.68" cy="238.5" fill="#abd2ff"></circle><circle r="5" cx="1752.08" cy="391.5" fill="#abd2ff"></circle><circle r="5" cx="1689.72" cy="554.5" fill="#abd2ff"></circle><circle r="5" cx="1857.82" cy="-89.49" fill="#abd2ff"></circle><circle r="5" cx="1865.03" cy="260.28" fill="#abd2ff"></circle><circle r="5" cx="1842.71" cy="395.47" fill="#abd2ff"></circle><circle r="5" cx="1867.93" cy="510.03" fill="#abd2ff"></circle><circle r="5" cx="1999.84" cy="104.71" fill="#abd2ff"></circle><circle r="5" cx="2058.27" cy="208.35" fill="#abd2ff"></circle><circle r="5" cx="2031.96" cy="385.32" fill="#abd2ff"></circle><circle r="5" cx="2029.69" cy="524.92" fill="#abd2ff"></circle><circle r="5" cx="2182.79" cy="66.51" fill="#abd2ff"></circle><circle r="5" cx="2150.09" cy="378.06" fill="#abd2ff"></circle><circle r="5" cx="2147.72" cy="508.69" fill="#abd2ff"></circle></g><defs><mask id="SvgjsMask1125"><rect width="2000" height="400" fill="#ffffff"></rect></mask><radialGradient id="SvgjsRadialGradient1126"><stop stop-color="#ffffff" offset="0.1"></stop><stop stop-color="rgba(86, 165, 255, 1)" offset="0.2"></stop><stop stop-color="rgba(86, 165, 255, 0)" offset="1"></stop></radialGradient></defs></svg>