<svg xmlns="http://www.w3.org/2000/svg" version="1.1" xmlns:xlink="http://www.w3.org/1999/xlink" xmlns:svgjs="http://svgjs.dev/svgjs" width="500" height="170" preserveAspectRatio="none" viewBox="0 0 500 170"><g mask="url(&quot;#SvgjsMask1074&quot;)" fill="none"><path d="M130.03 110.47 a38.82 38.82 0 1 0 77.64 0 a38.82 38.82 0 1 0 -77.64 0z" fill="rgba(86, 165, 255, 0.38)" class="triangle-float2"></path><path d="M165.9379466512459 113.7497094879011L202.16774055043047 124.86403520027748 195.28019014702653 92.4606581918729z" fill="rgba(86, 165, 255, 0.38)" class="triangle-float3"></path><path d="M-13.24 152.35 a31.84 31.84 0 1 0 63.68 0 a31.84 31.84 0 1 0 -63.68 0z" fill="rgba(86, 165, 255, 0.38)" class="triangle-float3"></path><path d="M288.83 144.53 a31.56 31.56 0 1 0 63.12 0 a31.56 31.56 0 1 0 -63.12 0z" fill="rgba(86, 165, 255, 0.38)" class="triangle-float3"></path><path d="M263.3704966537566 11.435132258229592L257.21161003389744 43.11985715233177 307.8181406849803 36.5158246350694z" fill="rgba(86, 165, 255, 0.38)" class="triangle-float2"></path><path d="M61.051763590150784 86.29704612900474L41.43372095272205 105.91508876643348 80.66980622757953 125.53313140386221z" fill="rgba(86, 165, 255, 0.38)" class="triangle-float2"></path><path d="M378.291635725766 114.70164849765547L346.1694359379627 152.98339549679906 384.4511829371063 185.1055952846024 416.5733827249096 146.8238482854588z" fill="rgba(86, 165, 255, 0.38)" class="triangle-float3"></path><path d="M298.61390628923783 69.47677230402188L280.0236681944304 104.43992508601575 314.98682097642427 123.03016318082315 333.5770590712317 88.06701039882928z" fill="rgba(86, 165, 255, 0.38)" class="triangle-float1"></path><path d="M305.57 114.67 a42.34 42.34 0 1 0 84.68 0 a42.34 42.34 0 1 0 -84.68 0z" fill="rgba(86, 165, 255, 0.38)" class="triangle-float2"></path><path d="M296.663,156.845C310.843,157.412,322.502,147.078,329.76,134.883C337.219,122.351,341.562,106.685,333.904,94.274C326.502,82.278,310.759,81.236,296.663,81.245C282.588,81.254,266.407,82.055,259.501,94.319C252.666,106.458,260.738,120.432,267.856,132.407C274.751,144.009,283.178,156.306,296.663,156.845" fill="rgba(86, 165, 255, 0.38)" class="triangle-float2"></path></g><defs><mask id="SvgjsMask1074"><rect width="500" height="170" fill="#ffffff"></rect></mask><style>
                @keyframes float1 {
                    0%{transform: translate(0, 0)}
                    50%{transform: translate(-10px, 0)}
                    100%{transform: translate(0, 0)}
                }

                .triangle-float1 {
                    animation: float1 5s infinite;
                }

                @keyframes float2 {
                    0%{transform: translate(0, 0)}
                    50%{transform: translate(-5px, -5px)}
                    100%{transform: translate(0, 0)}
                }

                .triangle-float2 {
                    animation: float2 4s infinite;
                }

                @keyframes float3 {
                    0%{transform: translate(0, 0)}
                    50%{transform: translate(0, -10px)}
                    100%{transform: translate(0, 0)}
                }

                .triangle-float3 {
                    animation: float3 6s infinite;
                }
            </style></defs></svg>